HIERARCHY
ROOT Hips
{
  OFFSET -0.786334 87.5765 1.09603
  CHANNELS 6 Xposition Yposition Zposition Zrotation Xrotation Yrotation
  JOINT Spine
  {
    OFFSET 0 9.9235 -1.2273
    CHANNELS 6 Xposition Yposition Zposition Zrotation Xrotation Yrotation
    JOINT Spine1
    {
      OFFSET -0.0001 11.6454 -1.4223
      CHANNELS 6 Xposition Yposition Zposition Zrotation Xrotation Yrotation
      JOINT Spine2
      {
        OFFSET 0.0001 13.3602 -1.6265
        CHANNELS 6 Xposition Yposition Zposition Zrotation Xrotation Yrotation
        JOINT Neck
        {
          OFFSET 0 15.0325 0.7929
          CHANNELS 6 Xposition Yposition Zposition Zrotation Xrotation Yrotation
          JOINT Head
          {
            OFFSET 0 10.3218 3.1424
            CHANNELS 6 Xposition Yposition Zposition Zrotation Xrotation Yrotation
            JOINT HeadTop_End
            {
              OFFSET 0.0002 18.4747 6.6364
              CHANNELS 6 Xposition Yposition Zposition Zrotation Xrotation Yrotation
              End Site
              {
                OFFSET 0 0 0
              }
            }
            JOINT LeftEye
            {
              OFFSET 2.9479 7.6817 9.1207
              CHANNELS 6 Xposition Yposition Zposition Zrotation Xrotation Yrotation
              End Site
              {
                OFFSET 0 0 0
              }
            }
            JOINT RightEye
            {
              OFFSET -2.9445 7.6817 9.1205
              CHANNELS 6 Xposition Yposition Zposition Zrotation Xrotation Yrotation
              End Site
              {
                OFFSET 0 0 0
              }
            }
          }
        }
        JOINT LeftShoulder
        {
          OFFSET 6.1058 9.1104 0.7056
          CHANNELS 6 Xposition Yposition Zposition Zrotation Xrotation Yrotation
          JOINT LeftArm
          {
            OFFSET 12.655 -0.2659 -2.6009
            CHANNELS 6 Xposition Yposition Zposition Zrotation Xrotation Yrotation
            JOINT LeftForeArm
            {
              OFFSET 27.4047 0 0
              CHANNELS 6 Xposition Yposition Zposition Zrotation Xrotation Yrotation
              JOINT LeftHand
              {
                OFFSET 27.6145 0 0
                CHANNELS 6 Xposition Yposition Zposition Zrotation Xrotation Yrotation
                JOINT LeftHandMiddle1
                {
                  OFFSET 12.7755 0 0
                  CHANNELS 6 Xposition Yposition Zposition Zrotation Xrotation Yrotation
                  JOINT LeftHandMiddle2
                  {
                    OFFSET 3.614 0 0
                    CHANNELS 6 Xposition Yposition Zposition Zrotation Xrotation Yrotation
                    JOINT LeftHandMiddle3
                    {
                      OFFSET 3.4598 0 0
                      CHANNELS 6 Xposition Yposition Zposition Zrotation Xrotation Yrotation
                      End Site
                      {
                        OFFSET 3.6802 0 0
                      }
                    }
                  }
                }
                JOINT LeftHandThumb1
                {
                  OFFSET 3.7888 -2.167 3.0031
                  CHANNELS 6 Xposition Yposition Zposition Zrotation Xrotation Yrotation
                  JOINT LeftHandThumb2
                  {
                    OFFSET 3.6754 -2.122 2.122
                    CHANNELS 6 Xposition Yposition Zposition Zrotation Xrotation Yrotation
                    JOINT LeftHandThumb3
                    {
                      OFFSET 3.3944 -1.9597 1.9598
                      CHANNELS 6 Xposition Yposition Zposition Zrotation Xrotation Yrotation
                      End Site
                      {
                        OFFSET 2.6794 -1.5469 1.5469
                      }
                    }
                  }
                }
                JOINT LeftHandIndex1
                {
                  OFFSET 12.2666 -0.2317 2.8221
                  CHANNELS 6 Xposition Yposition Zposition Zrotation Xrotation Yrotation
                  JOINT LeftHandIndex2
                  {
                    OFFSET 3.892 0 0
                    CHANNELS 6 Xposition Yposition Zposition Zrotation Xrotation Yrotation
                    JOINT LeftHandIndex3
                    {
                      OFFSET 3.4152 0 0
                      CHANNELS 6 Xposition Yposition Zposition Zrotation Xrotation Yrotation
                      End Site
                      {
                        OFFSET 3.078 0 0
                      }
                    }
                  }
                }
                JOINT LeftHandRing1
                {
                  OFFSET 12.147 0.0099 -2.2166
                  CHANNELS 6 Xposition Yposition Zposition Zrotation Xrotation Yrotation
                  JOINT LeftHandRing2
                  {
                    OFFSET 3.6012 0 0
                    CHANNELS 6 Xposition Yposition Zposition Zrotation Xrotation Yrotation
                    JOINT LeftHandRing3
                    {
                      OFFSET 3.3073 0 0
                      CHANNELS 6 Xposition Yposition Zposition Zrotation Xrotation Yrotation
                      End Site
                      {
                        OFFSET 3.6601 0 0
                      }
                    }
                  }
                }
                JOINT LeftHandPinky1
                {
                  OFFSET 10.9082 -0.2264 -4.7258
                  CHANNELS 6 Xposition Yposition Zposition Zrotation Xrotation Yrotation
                  JOINT LeftHandPinky2
                  {
                    OFFSET 4.1367 0 0
                    CHANNELS 6 Xposition Yposition Zposition Zrotation Xrotation Yrotation
                    JOINT LeftHandPinky3
                    {
                      OFFSET 2.5948 0 0
                      CHANNELS 6 Xposition Yposition Zposition Zrotation Xrotation Yrotation
                      End Site
                      {
                        OFFSET 2.9239 0 0
                      }
                    }
                  }
                }
              }
            }
          }
        }
        JOINT RightShoulder
        {
          OFFSET -6.1057 9.1105 0.7056
          CHANNELS 6 Xposition Yposition Zposition Zrotation Xrotation Yrotation
          JOINT RightArm
          {
            OFFSET -12.655 -0.266 -2.6009
            CHANNELS 6 Xposition Yposition Zposition Zrotation Xrotation Yrotation
            JOINT RightForeArm
            {
              OFFSET -27.4047 0 0
              CHANNELS 6 Xposition Yposition Zposition Zrotation Xrotation Yrotation
              JOINT RightHand
              {
                OFFSET -27.6145 0 0
                CHANNELS 6 Xposition Yposition Zposition Zrotation Xrotation Yrotation
                JOINT RightHandMiddle1
                {
                  OFFSET -12.7755 0 0
                  CHANNELS 6 Xposition Yposition Zposition Zrotation Xrotation Yrotation
                  JOINT RightHandMiddle2
                  {
                    OFFSET -3.614 0 0
                    CHANNELS 6 Xposition Yposition Zposition Zrotation Xrotation Yrotation
                    JOINT RightHandMiddle3
                    {
                      OFFSET -3.4598 0 0
                      CHANNELS 6 Xposition Yposition Zposition Zrotation Xrotation Yrotation
                      End Site
                      {
                        OFFSET -3.6802 0 0
                      }
                    }
                  }
                }
                JOINT RightHandThumb1
                {
                  OFFSET -3.7888 -2.167 3.0031
                  CHANNELS 6 Xposition Yposition Zposition Zrotation Xrotation Yrotation
                  JOINT RightHandThumb2
                  {
                    OFFSET -3.6754 -2.122 2.122
                    CHANNELS 6 Xposition Yposition Zposition Zrotation Xrotation Yrotation
                    JOINT RightHandThumb3
                    {
                      OFFSET -3.3944 -1.9597 1.9598
                      CHANNELS 6 Xposition Yposition Zposition Zrotation Xrotation Yrotation
                      End Site
                      {
                        OFFSET -2.6794 -1.5469 1.5469
                      }
                    }
                  }
                }
                JOINT RightHandIndex1
                {
                  OFFSET -12.2666 -0.2317 2.8221
                  CHANNELS 6 Xposition Yposition Zposition Zrotation Xrotation Yrotation
                  JOINT RightHandIndex2
                  {
                    OFFSET -3.892 0 0
                    CHANNELS 6 Xposition Yposition Zposition Zrotation Xrotation Yrotation
                    JOINT RightHandIndex3
                    {
                      OFFSET -3.4152 0 0
                      CHANNELS 6 Xposition Yposition Zposition Zrotation Xrotation Yrotation
                      End Site
                      {
                        OFFSET -3.078 0 0
                      }
                    }
                  }
                }
                JOINT RightHandRing1
                {
                  OFFSET -12.147 0.0099 -2.2166
                  CHANNELS 6 Xposition Yposition Zposition Zrotation Xrotation Yrotation
                  JOINT RightHandRing2
                  {
                    OFFSET -3.6012 0 0
                    CHANNELS 6 Xposition Yposition Zposition Zrotation Xrotation Yrotation
                    JOINT RightHandRing3
                    {
                      OFFSET -3.3073 0 0
                      CHANNELS 6 Xposition Yposition Zposition Zrotation Xrotation Yrotation
                      End Site
                      {
                        OFFSET -3.6601 0 0
                      }
                    }
                  }
                }
                JOINT RightHandPinky1
                {
                  OFFSET -10.9082 -0.2264 -4.7258
                  CHANNELS 6 Xposition Yposition Zposition Zrotation Xrotation Yrotation
                  JOINT RightHandPinky2
                  {
                    OFFSET -4.1367 0 0
                    CHANNELS 6 Xposition Yposition Zposition Zrotation Xrotation Yrotation
                    JOINT RightHandPinky3
                    {
                      OFFSET -2.5948 0 0
                      CHANNELS 6 Xposition Yposition Zposition Zrotation Xrotation Yrotation
                      End Site
                      {
                        OFFSET -2.9239 0 0
                      }
                    }
                  }
                }
              }
            }
          }
        }
      }
    }
  }
  JOINT RightUpLeg
  {
    OFFSET -9.1245 -6.6564 -0.0554
    CHANNELS 6 Xposition Yposition Zposition Zrotation Xrotation Yrotation
    JOINT RightLeg
    {
      OFFSET -0.2447 -40.5954 -0.5145
      CHANNELS 6 Xposition Yposition Zposition Zrotation Xrotation Yrotation
      JOINT RightFoot
      {
        OFFSET 0.2447 -42.0479 -2.0602
        CHANNELS 6 Xposition Yposition Zposition Zrotation Xrotation Yrotation
        JOINT RightToeBase
        {
          OFFSET -0.3734 -10.4922 12.6407
          CHANNELS 6 Xposition Yposition Zposition Zrotation Xrotation Yrotation
          End Site
          {
            OFFSET 0 0 9.9925
          }
        }
      }
    }
  }
  JOINT LeftUpLeg
  {
    OFFSET 9.1245 -6.6564 -0.0554
    CHANNELS 6 Xposition Yposition Zposition Zrotation Xrotation Yrotation
    JOINT LeftLeg
    {
      OFFSET 0.2447 -40.5954 0
      CHANNELS 6 Xposition Yposition Zposition Zrotation Xrotation Yrotation
      JOINT LeftFoot
      {
        OFFSET -0.2447 -42.048 -2.0576
        CHANNELS 6 Xposition Yposition Zposition Zrotation Xrotation Yrotation
        JOINT LeftToeBase
        {
          OFFSET 0.3734 -10.4922 12.6407
          CHANNELS 6 Xposition Yposition Zposition Zrotation Xrotation Yrotation
          End Site
          {
            OFFSET 0 0 9.9925
          }
        }
      }
    }
  }
}
MOTION
Frames:	4
Frame Time:	0.0166667
-29.1263 94.9914 -29.9255 11.8173 18.2062 -14.0985 0 9.9235 -1.2273 8.82154 6.91544 -2.63714 -0.0001 11.6454 -1.4223 3.50483 5.29549 -2.5844 0.0001 13.3602 -1.6265 3.48595 5.2693 -2.6486 0 15.0325 0.7929 4.93205 0.980097 -12.6669 7.10543e-015 10.3218 3.1424 8.8129 -21.9579 -62.2029 0.0002 18.4747 6.6364 -3.18055e-015 1.39149e-015 3.18055e-015 2.9479 7.6817 9.1207 -3.18055e-015 1.39149e-015 3.18055e-015 -2.9445 7.6817 9.1205 -3.18055e-015 1.39149e-015 3.18055e-015 6.1058 9.1104 0.7056 8.12428 0.051424 -7.38663 12.655 -0.2659 -2.6009 -24.0523 -3.55159 -1.87366 27.4047 1.42109e-014 -1.42109e-014 -1.3036e-005 -2.42952e-006 -54.2984 27.6145 0 -7.10543e-015 -20.6955 -33.1987 -13.6461 12.7755 0 0 -38.3133 -2.68367 5.53797 3.614 0 3.55271e-015 -54.1814 -2.43797 4.76409 3.4598 -1.42109e-014 0 -35.2472 -1.07678 3.38871 3.7888 -2.167 3.0031 -12.8852 -3.79105 13.5908 3.6754 -2.122 2.122 39.7933 16.5481 -6.29823 3.3944 -1.9597 1.9598 10.4059 9.41879 22.4196 12.2666 -0.2317 2.8221 -30.935 -1.99764 5.0803 3.892 0 0 -38.2481 -1.26097 3.63542 3.4152 3.55271e-015 3.55271e-015 -10.5964 -0.100086 1.07922 12.147 0.0099 -2.2166 -49.7499 -3.84754 6.06376 3.6012 0 -1.77636e-015 -43.9439 -1.64502 4.0759 3.3073 0 1.77636e-015 -43.5882 -1.61977 4.04951 10.9082 -0.2264 -4.7258 -56.5988 -4.58608 6.26406 4.1367 -3.55271e-015 -1.77636e-015 -46.6106 -1.8395 4.26859 2.5948 -1.42109e-014 1.77636e-015 -54.8374 -2.4928 4.80323 -6.1057 9.1105 0.7056 18.6373 -0.3436 -1.03476 -12.655 -0.266 -2.6009 38.6351 29.2086 -26.201 -27.4047 -1.06581e-014 0 -1.58493e-005 4.20378e-006 105.992 -27.6145 7.10543e-015 -1.42109e-014 -25.3622 21.5339 22.9886 -12.7755 0 -1.42109e-014 7.61783 -0.296332 -2.88724 -3.614 0 0 29.6909 -0.612631 -2.31103 -3.4598 7.10543e-015 3.55271e-015 16.7981 -0.199074 -1.34816 -3.7888 -2.167 3.0031 14.9519 -7.30477 -6.69539 -3.6754 -2.122 2.122 -40.8967 18.8389 2.09721 -3.3944 -1.9597 1.9598 -14.5706 9.64234 -12.0304 -12.2666 -0.2317 2.8221 -6.00818 0.261115 -1.77594 -3.892 -1.42109e-014 7.10543e-015 29.2924 -0.596654 -2.28278 -3.4152 0 3.55271e-015 11.6168 -0.0955463 -0.939301 -12.147 0.0099 -2.2166 22.1647 -1.16274 -3.89373 -3.6012 0 -7.10543e-015 29.1827 -0.592293 -2.27499 -3.3073 5.32907e-015 7.10543e-015 27.3966 -0.523327 -2.14684 -10.9082 -0.2264 -4.7258 29.0749 -1.65743 -4.28799 -4.1367 0 -7.10543e-015 30.67 -0.652735 -2.38 -2.5948 3.55271e-015 -3.55271e-015 31.2375 -0.676519 -2.41964 -9.1245 -6.6564 -0.0554 -19.8422 -44.3246 -6.19259 -0.2447 -40.5954 -0.5145 -13.9302 45.5771 -0.0503914 0.2447 -42.0479 -2.0602 10.5975 -3.56435 -13.952 -0.3734 -10.4922 12.6407 7.84286 -2.05116 -0.369079 9.1245 -6.6564 -0.0554 18.6425 -34.9273 21.9331 0.2447 -40.5954 -0.517 -9.08647 31.9756 13.8107 -0.2447 -42.048 -2.0576 -17.9164 5.36683 20.4819 0.3734 -10.4922 12.6407 -4.37393e-006 -18.424 -4.78161e-006 
-30.5758 94.2456 -31.7154 12.8792 18.8433 -14.3769 0 9.9235 -1.2273 9.18228 7.1975 -1.8 -0.0001 11.6454 -1.4223 3.67442 5.49934 -1.95324 0.0001 13.3602 -1.6265 3.60014 5.4788 -2.05326 1.24345e-014 15.0325 0.7929 4.44194 -0.0267256 -12.8867 1.77636e-015 10.3218 3.1424 7.25294 -23.9517 -63.576 0.0002 18.4747 6.6364 4.77083e-015 5.1684e-015 -3.18055e-015 2.9479 7.6817 9.1207 4.77083e-015 5.1684e-015 -3.18055e-015 -2.9445 7.6817 9.1205 4.77083e-015 5.1684e-015 -3.18055e-015 6.1058 9.1104 0.7056 5.5435 0.299995 -6.57803 12.655 -0.2659 -2.6009 -26.4939 -2.9014 0.801369 27.4047 0 0 -6.03361e-006 -8.70434e-006 -56.1943 27.6145 1.42109e-014 7.10543e-015 -19.0026 -32.9805 -13.2781 12.7755 0 0 -35.0464 -2.37265 5.34621 3.614 7.10543e-015 -3.55271e-015 -50.9111 -2.17143 4.55974 3.4598 1.42109e-014 8.88178e-016 -31.9735 -0.890928 3.10904 3.7888 -2.167 3.0031 -12.8852 -3.79105 13.5908 3.6754 -2.122 2.122 39.7933 16.5481 -6.29826 3.3944 -1.9597 1.9598 10.4059 9.41878 22.4196 12.2666 -0.2317 2.8221 -24.5227 -1.45356 4.61407 3.892 0 0 -34.9749 -1.0607 3.36586 3.4152 3.55271e-015 0 -7.31831 -0.0478109 0.747561 12.147 0.0099 -2.2166 -46.4826 -3.50469 5.93739 3.6012 0 0 -40.672 -1.41903 3.8275 3.3073 7.10543e-015 0 -40.3162 -1.39531 3.79974 10.9082 -0.2264 -4.7258 -53.3299 -4.23065 6.1795 4.1367 0 0 -43.3392 -1.60219 4.03096 2.5948 0 1.77636e-015 -51.5671 -2.22395 4.60195 -6.1057 9.1105 0.7056 19.0467 -0.180298 -0.516846 -12.655 -0.266 -2.6009 39.3038 27.6948 -21.0577 -27.4047 -3.55271e-015 0 1.79477e-005 -1.79167e-005 107.07 -27.6145 7.10543e-015 1.42109e-014 -26.0205 23.052 23.4388 -12.7755 0 -7.10543e-015 5.07858 -0.172615 -2.69062 -3.614 -1.42109e-014 0 27.6819 -0.53408 -2.16746 -3.4598 -7.10543e-015 0 15.1379 -0.16187 -1.21818 -3.7888 -2.167 3.0031 15.0954 -7.50163 -6.20217 -3.6754 -2.122 2.122 -40.8592 18.7953 2.37364 -3.3944 -1.9597 1.9598 -14.327 8.96131 -10.5727 -12.2666 -0.2317 2.8221 -7.88649 0.31669 -1.61346 -3.892 0 7.10543e-015 26.7511 -0.499407 -2.1 -3.4152 7.10543e-015 7.10543e-015 9.9565 -0.0702606 -0.806516 -12.147 0.0099 -2.2166 19.8089 -1.00545 -3.7461 -3.6012 0 0 27.5233 -0.52809 -2.15601 -3.3073 3.55271e-015 -2.13163e-014 25.7371 -0.462868 -2.02592 -10.9082 -0.2264 -4.7258 26.7382 -1.48483 -4.16136 -4.1367 0 0 29.0107 -0.585473 -2.26272 -2.5948 1.77636e-015 -3.55271e-015 28.4622 -0.563985 -2.22354 -9.1245 -6.6564 -0.0554 -23.0442 -43.8513 -5.79735 -0.2447 -40.5954 -0.5145 -13.5491 44.039 -0.632038 0.2447 -42.0479 -2.0602 12.976 -1.98862 -11.7729 -0.3734 -10.4922 12.6407 9.71553 -5.85936 0.00547901 9.1245 -6.6564 -0.0554 19.6231 -36.4697 22.6547 0.2447 -40.5954 -0.517 -9.38607 31.8552 14.3659 -0.2447 -42.048 -2.0576 -18.1044 5.80422 20.3507 0.3734 -10.4922 12.6407 1.84262e-006 -16.8359 -3.77946e-007 
-32.3685 93.4931 -33.7494 13.9871 19.4475 -15.0616 -3.55271e-015 9.9235 -1.2273 9.49952 7.53138 -1.15975 -0.0001 11.6454 -1.4223 3.86179 5.72516 -1.40474 0.0001 13.3602 -1.6265 3.75213 5.70879 -1.54167 3.55271e-015 15.0325 0.7929 3.97004 -0.661943 -13.0689 -3.55271e-015 10.3218 3.1424 5.74334 -25.6376 -65.0976 0.0002 18.4747 6.6364 -1.59028e-015 1.78906e-015 -0 2.9479 7.6817 9.1207 -1.59028e-015 1.78906e-015 -0 -2.9445 7.6817 9.1205 -1.59028e-015 1.78906e-015 -0 6.1058 9.1104 0.7056 3.25014 0.476259 -5.75027 12.655 -0.2659 -2.6009 -28.9896 -2.99721 3.30718 27.4047 -1.42109e-014 0 -1.31169e-005 -4.04591e-006 -57.042 27.6145 0 7.10543e-015 -17.7443 -31.7384 -13.8394 12.7755 0 -3.55271e-015 -32.1962 -2.11063 5.1647 3.614 0 0 -48.0579 -1.94875 4.36934 3.4598 7.10543e-015 1.77636e-015 -29.117 -0.742064 2.85676 3.7888 -2.167 3.0031 -12.8852 -3.79105 13.5908 3.6754 -2.122 2.122 39.7933 16.5481 -6.29825 3.3944 -1.9597 1.9598 10.4059 9.41879 22.4196 12.2666 -0.2317 2.8221 -18.9266 -1.02398 4.15995 3.892 0 3.55271e-015 -32.1191 -0.89885 3.12171 3.4152 5.32907e-015 0 -4.45844 -0.017763 0.456198 12.147 0.0099 -2.2166 -43.6327 -3.21192 5.81139 3.6012 -3.55271e-015 0 -37.8172 -1.23372 3.60059 3.3073 0 0 -37.4614 -1.21142 3.57168 10.9082 -0.2264 -4.7258 -50.479 -3.92498 6.08927 4.1367 -3.55271e-015 0 -40.4849 -1.40652 3.8129 2.5948 -1.42109e-014 0 -48.7139 -1.99912 4.4141 -6.1057 9.1105 0.7056 19.322 -0.0185002 0.347457 -12.655 -0.266 -2.6009 39.6477 25.9603 -14.7957 -27.4047 -7.10543e-015 0 1.66743e-005 -9.18641e-006 107.519 -27.6145 3.55271e-015 0 -26.3949 25.335 23.4665 -12.7755 0 0 2.62436 -0.0614528 -2.49561 -3.614 0 -1.42109e-014 25.7403 -0.462986 -2.02618 -3.4598 1.42109e-014 7.10543e-015 13.5336 -0.129528 -1.0916 -3.7888 -2.167 3.0031 15.2358 -7.69072 -5.72488 -3.6754 -2.122 2.122 -40.8228 18.7533 2.64072 -3.3944 -1.9597 1.9598 -14.0754 8.30918 -9.16371 -12.2666 -0.2317 2.8221 -9.7018 0.365324 -1.45483 -3.892 0 0 24.295 -0.413205 -1.91948 -3.4152 -7.10543e-015 -1.42109e-014 8.35193 -0.049469 -0.67753 -12.147 0.0099 -2.2166 17.5321 -0.859344 -3.59742 -3.6012 0 7.10543e-015 25.9197 -0.46936 -2.03932 -3.3073 -3.55271e-015 2.13163e-014 24.1333 -0.407801 -1.90747 -10.9082 -0.2264 -4.7258 24.4798 -1.3231 -4.03241 -4.1367 7.10543e-015 1.42109e-014 27.4071 -0.523725 -2.14759 -2.5948 0 7.10543e-015 25.7799 -0.464403 -2.02907 -9.1245 -6.6564 -0.0554 -25.2337 -44.0387 -4.98877 -0.2447 -40.5954 -0.5145 -13.7711 43.2929 -1.77471 0.2447 -42.0479 -2.0602 15.5606 -3.78665 -3.67494 -0.3734 -10.4922 12.6407 6.49308 -7.65923 0.43001 9.1245 -6.6564 -0.0554 20.7515 -37.6495 23.3305 0.2447 -40.5954 -0.517 -9.36578 30.9749 14.7571 -0.2447 -42.048 -2.0576 -18.6409 6.51192 20.8445 0.3734 -10.4922 12.6407 -6.20363e-007 -14.7861 1.43794e-005 
-34.1379 92.7378 -35.7265 14.605 19.6084 -15.5774 -7.10543e-015 9.9235 -1.2273 9.77941 7.93096 -0.59864 -0.0001 11.6454 -1.4223 4.06355 5.98453 -0.972394 0.0001 13.3602 -1.6265 3.93812 5.97114 -1.13321 -2.66454e-015 15.0325 0.7929 3.54431 -1.22962 -13.1186 -3.55271e-015 10.3218 3.1424 4.53554 -27.2822 -65.8995 0.0002 18.4747 6.6364 1.10348e-031 1.98785e-015 -3.18055e-015 2.9479 7.6817 9.1207 1.10348e-031 1.98785e-015 -3.18055e-015 -2.9445 7.6817 9.1205 1.10348e-031 1.98785e-015 -3.18055e-015 6.1058 9.1104 0.7056 1.16394 0.592317 -4.90199 12.655 -0.2659 -2.6009 -31.6931 -3.71127 5.60961 27.4047 0 -1.42109e-014 5.31926e-006 1.0523e-005 -56.2521 27.6145 0 -7.10543e-015 -16.8456 -30.1572 -14.8129 12.7755 0 0 -30.18 -1.93091 5.02859 3.614 0 -1.77636e-015 -46.0395 -1.79711 4.22808 3.4598 7.10543e-015 -1.77636e-015 -27.0963 -0.644453 2.674 3.7888 -2.167 3.0031 -12.8852 -3.79105 13.5908 3.6754 -2.122 2.122 39.7933 16.5481 -6.29825 3.3944 -1.9597 1.9598 10.4059 9.41878 22.4196 12.2666 -0.2317 2.8221 -14.9668 -0.747888 3.81453 3.892 1.42109e-014 0 -30.0988 -0.791801 2.94429 3.4152 -1.77636e-015 -1.77636e-015 -2.43552 -0.00530732 0.249382 12.147 0.0099 -2.2166 -41.617 -3.00879 5.71355 3.6012 0 8.88178e-016 -35.7977 -1.10959 3.43467 3.3073 0 -8.88178e-016 -35.4417 -1.08834 3.40501 10.9082 -0.2264 -4.7258 -48.4629 -3.71164 6.01632 4.1367 -1.77636e-015 -1.77636e-015 -38.4656 -1.27481 3.65294 2.5948 0 -2.66454e-015 -46.6957 -1.84585 4.27458 -6.1057 9.1105 0.7056 19.554 0.167168 1.68957 -12.655 -0.266 -2.6009 39.6477 24.2624 -8.54161 -27.4047 -3.55271e-015 -1.42109e-014 -1.59467e-005 4.52984e-006 107.27 -27.6145 0 0 -26.3494 27.0329 23.366 -12.7755 0 0 0.312252 0.0355291 -2.30771 -3.614 0 0 23.9114 -0.400434 -1.89096 -3.4598 7.10543e-015 7.10543e-015 12.0222 -0.102306 -0.971607 -3.7888 -2.167 3.0031 15.3696 -7.86777 -5.27465 -3.6754 -2.122 2.122 -40.7883 18.7138 2.8923 -3.3944 -1.9597 1.9598 -13.8241 7.70068 -7.8359 -12.2666 -0.2317 2.8221 -11.4118 0.406471 -1.30405 -3.892 -1.42109e-014 -7.10543e-015 21.9813 -0.339153 -1.74618 -3.4152 0 -7.10543e-015 6.84042 -0.0332016 -0.555585 -12.147 0.0099 -2.2166 15.3872 -0.727217 -3.45215 -3.6012 0 1.42109e-014 24.4089 -0.417025 -1.92793 -3.3073 -7.10543e-015 7.10543e-015 22.6225 -0.358999 -1.79451 -10.9082 -0.2264 -4.7258 22.3523 -1.17553 -3.90521 -4.1367 7.10543e-015 7.10543e-015 25.8965 -0.468529 -2.03759 -2.5948 3.55271e-015 0 23.2531 -0.378996 -1.84182 -9.1245 -6.6564 -0.0554 -26.6468 -43.6614 -4.45184 -0.2447 -40.5954 -0.5145 -13.4361 41.1628 0.733438 0.2447 -42.0479 -2.0602 22.0544 -5.8005 0.401249 -0.3734 -10.4922 12.6407 2.81535 -8.61787 0.341219 9.1245 -6.6564 -0.0554 22.0729 -38.1964 24.0928 0.2447 -40.5954 -0.517 -9.12164 30.0417 14.3011 -0.2447 -42.048 -2.0576 -19.2554 6.99263 21.9613 0.3734 -10.4922 12.6407 2.58927e-006 -12.2391 -1.61925e-005 
